<svg xmlns="http://www.w3.org/2000/svg" xmlns:xlink="http://www.w3.org/1999/xlink" version="1.1" x="0px" y="0px" viewBox="0 0 68 85" style="enable-background:new 0 0 68 68;" xml:space="preserve"><g><g><path d="M34,53.7c-10.7,0-19.1-3.8-19.1-8.8s8.4-8.8,19.1-8.8s19.1,3.8,19.1,8.8c0,2.8-2.7,5.3-7.4,7c-0.5,0.2-1.1-0.1-1.3-0.6    c-0.2-0.5,0.1-1.1,0.6-1.3c3.8-1.3,6-3.2,6-5.1c0-3.2-7-6.8-17.1-6.8S16.9,41.8,16.9,45s7,6.8,17.1,6.8c2,0,4-0.1,5.9-0.4    c0.5-0.1,1.1,0.3,1.1,0.8s-0.3,1.1-0.8,1.1C38.2,53.6,36.1,53.7,34,53.7z"/></g><g><path d="M15.9,46c-0.6,0-1-0.4-1-1V33.4c0-3.5,4.1-6.5,10.8-7.9c0.5-0.1,1.1,0.2,1.2,0.8c0.1,0.5-0.2,1.1-0.8,1.2    c-5.5,1.2-9.2,3.6-9.2,6V45C16.9,45.5,16.5,46,15.9,46z"/></g><g><path d="M52.1,46c-0.6,0-1-0.4-1-1V33.4c0-3.2-7-6.8-17.1-6.8c-0.7,0-1.4,0-2.1,0.1c-0.6,0-1-0.4-1-0.9c0-0.6,0.4-1,0.9-1    c0.7,0,1.4-0.1,2.2-0.1c10.7,0,19.1,3.8,19.1,8.8V45C53.1,45.5,52.6,46,52.1,46z"/></g><g><path d="M52,33.9c-0.4,0-0.8-0.3-0.9-0.7c-0.2-0.5,0.1-1.1,0.6-1.3l10.5-3.8L34,16.4L5.8,28.1L16.3,32c0.5,0.2,0.8,0.8,0.6,1.3    c-0.2,0.5-0.8,0.8-1.3,0.6l-13-4.7C2.3,29,2,28.6,2,28.2c0-0.4,0.2-0.8,0.6-0.9l31-12.9c0.2-0.1,0.5-0.1,0.8,0l31,12.9    c0.4,0.2,0.6,0.5,0.6,0.9c0,0.4-0.3,0.8-0.7,0.9l-13,4.7C52.3,33.9,52.2,33.9,52,33.9z"/></g><g><path d="M5.6,43.4c-0.6,0-1-0.4-1-1V29.1c0-0.6,0.4-1,1-1s1,0.4,1,1v13.3C6.6,42.9,6.1,43.4,5.6,43.4z"/></g><g><path d="M5.6,48.6C3.6,48.6,2,47,2,45c0-2,1.6-3.6,3.6-3.6c2,0,3.6,1.6,3.6,3.6C9.2,47,7.6,48.6,5.6,48.6z M5.6,43.4    C4.7,43.4,4,44.1,4,45s0.7,1.6,1.6,1.6s1.6-0.7,1.6-1.6S6.5,43.4,5.6,43.4z"/></g></g><text x="0" y="83" fill="#000000" font-size="5px" font-weight="bold" font-family="'Helvetica Neue', Helvetica, Arial-Unicode, Arial, Sans-serif">Created by Azam Ishaq</text><text x="0" y="88" fill="#000000" font-size="5px" font-weight="bold" font-family="'Helvetica Neue', Helvetica, Arial-Unicode, Arial, Sans-serif">from the Noun Project</text></svg>